<svg width="361" height="141" viewBox="0 0 361 141" fill="none" xmlns="http://www.w3.org/2000/svg">
<path fill-rule="evenodd" clip-rule="evenodd" d="M75.1523 62.5516C76.977 64.0638 78.3354 65.5267 79.7986 67.432L97.3923 53.7432C94.959 50.6129 92.5506 48.0573 89.4978 45.5258L75.1523 62.5516ZM150.157 106.891C152.788 106.891 154.994 106.244 156.753 104.972C158.523 103.697 159.858 101.974 160.743 99.8201C161.629 97.6574 162.078 95.2623 162.078 92.6117C162.078 89.9967 161.64 87.6248 160.754 85.5076C159.882 83.4013 158.56 81.724 156.791 80.4747C155.032 79.2355 152.815 78.6107 150.157 78.6107C147.579 78.6107 145.41 79.2024 143.652 80.383C141.908 81.5513 140.587 83.1833 139.689 85.2773C138.803 87.3716 138.354 89.8122 138.354 92.6117C138.354 95.414 138.817 97.888 139.713 100.04C140.612 102.182 141.946 103.859 143.716 105.074C145.486 106.277 147.63 106.891 150.157 106.891ZM151.17 112.341C148.515 112.341 146.372 111.937 144.742 111.103C143.114 110.282 141.868 109.344 140.984 108.29C140.112 107.238 139.43 106.371 138.957 105.665H138.213V111.176C138.213 111.371 138.054 111.531 137.856 111.531H132.027C131.828 111.531 131.669 111.371 131.669 111.176V61.3784C131.669 61.1813 131.828 61.0233 132.027 61.0233H138.074C138.271 61.0233 138.431 61.1813 138.431 61.3784V79.699H138.957C139.43 79.017 140.098 78.1726 140.959 77.1432C141.804 76.1118 143.036 75.1858 144.641 74.3773C146.245 73.5658 148.413 73.1609 151.133 73.1609C154.649 73.1609 157.74 73.9488 160.409 75.5327C163.079 77.1081 165.169 79.3626 166.683 82.2908C168.198 85.2187 168.953 88.6767 168.953 92.6807C168.953 96.7093 168.209 100.181 166.695 103.118C165.194 106.057 163.116 108.338 160.448 109.933C157.779 111.543 154.687 112.341 151.17 112.341ZM193.049 112.006C190.225 112.006 187.738 111.485 185.596 110.431C183.454 109.379 181.784 107.795 180.592 105.663C179.398 103.546 178.807 100.885 178.807 97.7032V73.9899C178.807 73.7947 178.968 73.6364 179.164 73.6364H185.213C185.41 73.6364 185.569 73.7947 185.569 73.9899V97.1931C185.569 100.111 186.43 102.39 188.136 104.044C189.829 105.688 192.152 106.508 195.077 106.508C197.09 106.508 198.887 106.115 200.478 105.331C202.069 104.53 203.326 103.374 204.25 101.857C205.187 100.331 205.648 98.4903 205.648 96.3397V73.9899C205.648 73.7947 205.809 73.6364 206.005 73.6364H212.092C212.289 73.6364 212.448 73.7947 212.448 73.9899V111.177C212.448 111.374 212.289 111.531 212.092 111.531H206.263C206.066 111.531 205.906 111.374 205.906 111.177V104.003H206.13C204.887 106.683 203.267 108.621 201.26 109.83C198.874 111.275 196.129 112.006 193.049 112.006ZM224.329 111.182V73.9853C224.329 73.792 224.487 73.6367 224.68 73.6367H230.739C230.935 73.6367 231.09 73.792 231.09 73.9853V111.182C231.09 111.374 230.935 111.531 230.739 111.531H224.68C224.487 111.531 224.329 111.374 224.329 111.182ZM249.734 61.37V111.185C249.734 111.376 249.578 111.531 249.386 111.531H243.321C243.128 111.531 242.972 111.376 242.972 111.185V61.37C242.972 61.1794 243.128 61.0231 243.321 61.0231H249.386C249.578 61.0231 249.734 61.1794 249.734 61.37ZM278.384 106.891C280.937 106.891 283.094 106.277 284.839 105.074C286.597 103.859 287.931 102.182 288.83 100.04C289.726 97.888 290.188 95.414 290.188 92.6117C290.188 89.8122 289.738 87.3716 288.842 85.2773C287.956 83.1833 286.634 81.5513 284.877 80.383C283.132 79.2024 280.964 78.6107 278.384 78.6107C275.728 78.6107 273.508 79.2355 271.738 80.4747C269.981 81.724 268.66 83.4013 267.775 85.5076C266.903 87.6248 266.466 89.9967 266.466 92.6117C266.466 95.2623 266.913 97.6574 267.799 99.8201C268.683 101.974 270.019 103.697 271.802 104.972C273.587 106.244 275.766 106.891 278.384 106.891ZM277.358 112.341C273.88 112.341 270.803 111.543 268.12 109.933C265.439 108.338 263.348 106.057 261.834 103.118C260.332 100.181 259.588 96.7093 259.588 92.6807C259.588 88.6767 260.345 85.2187 261.86 82.2908C263.374 79.3626 265.478 77.1081 268.159 75.5327C270.84 73.9488 273.919 73.1609 277.395 73.1609C280.13 73.1609 282.299 73.5658 283.902 74.3773C285.505 75.1858 286.737 76.1118 287.61 77.1432C288.469 78.1726 289.125 79.017 289.584 79.699H290.112V61.382C290.112 61.1851 290.273 61.0233 290.474 61.0233H296.511C296.713 61.0233 296.874 61.1851 296.874 61.382V111.173C296.874 111.37 296.713 111.531 296.511 111.531H290.692C290.491 111.531 290.328 111.37 290.328 111.173V105.665H289.584C289.125 106.371 288.457 107.238 287.571 108.29C286.673 109.344 285.429 110.282 283.812 111.103C282.195 111.937 280.041 112.341 277.358 112.341ZM308.753 111.186V73.9817C308.753 73.79 308.909 73.6367 309.1 73.6367H315.168C315.361 73.6367 315.515 73.79 315.515 73.9817V111.186C315.515 111.376 315.361 111.531 315.168 111.531H309.1C308.909 111.531 308.753 111.376 308.753 111.186ZM334.158 88.8169V111.181C334.158 111.374 334.001 111.531 333.807 111.531H327.75C327.553 111.531 327.397 111.374 327.397 111.181V73.9853C327.397 73.792 327.553 73.6367 327.75 73.6367H333.551C333.745 73.6367 333.901 73.792 333.903 73.9833L333.931 80.6338L333.929 80.6327C335.112 78.2594 336.625 76.5014 338.471 75.3597C340.831 73.8902 343.614 73.162 346.797 73.162C349.619 73.162 352.108 73.6824 354.239 74.7349C356.368 75.7874 358.023 77.3619 359.217 79.4795C360.41 81.5964 361 84.2594 361 87.4638V111.181C361 111.374 360.844 111.531 360.647 111.531H354.591C354.396 111.531 354.239 111.374 354.239 111.181V87.9739C354.239 85.0566 353.392 82.777 351.698 81.1228C350.004 79.4674 347.695 78.6469 344.755 78.6469C342.755 78.6469 340.958 79.0395 339.357 79.8384C337.75 80.6247 336.482 81.7815 335.558 83.2986C334.62 84.8012 334.158 86.6537 334.158 88.8169ZM1.21628 0H21.1639C21.6998 0 22.1377 0.436705 22.1377 0.969506V43.2462C31.1578 36.6226 42.3042 32.7057 54.3708 32.7057C64.3416 32.7057 73.6834 35.3807 81.7173 40.0464L70.5591 59.2932C63.1295 54.9421 53.9735 53.5603 45.064 56.2125C28.0633 61.2739 18.4023 79.1022 23.4846 96.0327C28.5669 112.963 46.4683 122.585 63.469 117.523C70.7994 115.341 76.7659 110.785 80.773 104.951L99.2811 117.384C89.4884 131.643 73.0269 141 54.3708 141C24.3424 141 0 116.757 0 86.8533C0 58.2506 0.243314 29.5935 0.243314 0.969506C0.243314 0.436705 0.680446 0 1.21628 0ZM85.0679 95.9824L106.552 102.118C105.813 104.715 105.02 106.762 103.917 109.185L83.5038 100.134C84.1851 98.6464 84.62 97.5627 85.0679 95.9824ZM86.1904 90.547L108.41 92.8729C108.629 90.8969 108.742 88.8878 108.742 86.8533C108.742 84.9102 108.686 83.4418 108.485 81.5524L86.2613 83.8785C86.5228 86.2742 86.462 88.2159 86.1904 90.547ZM82.8058 72.1596C83.7994 74.014 84.4218 75.6124 85.0492 77.7036C85.1185 77.9347 85.1861 78.1666 85.2499 78.3988L106.744 72.2609C105.66 68.396 104.408 65.1765 102.537 61.7119L82.8058 72.1596Z" fill="#003087"/>
</svg>
