<svg xmlns="http://www.w3.org/2000/svg" width="16" height="20" fill="none"><path fill="#394150" d="M15.079 12.729a3.165 3.165 0 0 1-.945-2.2v-1.8A6.4 6.4 0 0 0 9 2.46V1a1 1 0 0 0-2 0v1.46a6.4 6.4 0 0 0-5.134 6.272v1.586c0 .07.008.141.023.21h-.023a3.165 3.165 0 0 1-.945 2.2A3.1 3.1 0 0 0 0 14.707C0 15.25 0 16.9 1.538 16.9h2.208a4.47 4.47 0 0 0 8.508 0h2.208C16 16.9 16 15.25 16 14.707a3.1 3.1 0 0 0-.921-1.978ZM8 18a2.48 2.48 0 0 1-2.057-1.1h4.114A2.48 2.48 0 0 1 8 18Zm6-3.1H2v-.193a2.1 2.1 0 0 1 .47-.712 5.125 5.125 0 0 0 1.4-3.463v-1.8A4.367 4.367 0 0 1 8 4.364a4.367 4.367 0 0 1 4.134 4.368v1.586c0 .07.008.14.022.21h-.022a5.125 5.125 0 0 0 1.4 3.463 2.1 2.1 0 0 1 .47.712c-.004.061-.004.13-.004.197Z"/></svg>