<svg width="15" height="15" viewBox="0 0 15 15" fill="none" xmlns="http://www.w3.org/2000/svg">
<path d="M6.22316 0.0897634C7.78446 -0.156203 9.38047 0.106902 10.7771 0.835011L11.0532 0.986806L11.1108 1.02345C11.3864 1.22189 11.4725 1.60097 11.2992 1.90152C11.1258 2.20204 10.7545 2.31751 10.4447 2.17828L10.3839 2.14688L10.1575 2.02322C9.01492 1.42757 7.70922 1.21222 6.43193 1.41341C5.06949 1.62806 3.82159 2.3034 2.89674 3.32657C1.97189 4.34979 1.42565 5.65931 1.34932 7.0364C1.27302 8.41359 1.67117 9.7757 2.47734 10.8948C3.28349 12.0139 4.44921 12.823 5.77957 13.1868C7.1099 13.5506 8.52501 13.4474 9.78843 12.8943C11.052 12.3413 12.0878 11.3713 12.723 10.1469C13.3184 8.99917 13.528 7.69247 13.3249 6.42007L13.2785 6.16621L13.2687 6.0982C13.2349 5.76042 13.4615 5.44517 13.8013 5.37583C14.1413 5.30655 14.4737 5.50817 14.5746 5.83253L14.5917 5.89862L14.6479 6.20875C14.8961 7.76409 14.6397 9.36104 13.9118 10.7639C13.1355 12.2603 11.8699 13.4458 10.3256 14.1218C8.78149 14.7978 7.05222 14.9236 5.42625 14.479C3.80022 14.0344 2.37519 13.0458 1.38989 11.678C0.404604 10.3102 -0.0819479 8.64568 0.0112873 6.9625C0.104551 5.2793 0.772474 3.67885 1.90286 2.42822C3.03324 1.17767 4.55801 0.352115 6.22316 0.0897634Z" fill="#1E2229"/>
<path d="M13.6291 1.50287C13.8922 1.28824 14.2801 1.30337 14.5254 1.54867C14.7708 1.79397 14.7859 2.1819 14.5712 2.44506L14.5254 2.49609L7.8254 9.19607C7.58011 9.44136 7.19218 9.4565 6.92908 9.2419L6.87802 9.19607L4.86801 7.18607L4.82221 7.13509C4.60757 6.87191 4.62271 6.48398 4.86801 6.23869C5.1133 5.99337 5.50124 5.97824 5.76439 6.19286L5.81543 6.23869L7.35171 7.77494L13.578 1.54867L13.6291 1.50287Z" fill="#1E2229"/>
</svg>
