<svg width="12" height="11" viewBox="0 0 12 11" fill="none" xmlns="http://www.w3.org/2000/svg">
<path d="M0.705882 6.28012C0.315529 6.28012 0 6.5359 0 6.85105V9.70567C0 10.0208 0.315529 10.2766 0.705882 10.2766C1.09624 10.2766 1.41176 10.0208 1.41176 9.70567V6.85105C1.41176 6.5359 1.09624 6.28012 0.705882 6.28012Z" fill="#B0B0B0"/>
<path d="M4.23529 3.99642C3.84494 3.99642 3.52941 4.2522 3.52941 4.56735V9.70567C3.52941 10.0208 3.84494 10.2766 4.23529 10.2766C4.62565 10.2766 4.94118 10.0208 4.94118 9.70567V4.56735C4.94118 4.2522 4.62565 3.99642 4.23529 3.99642Z" fill="#B0B0B0"/>
<path d="M7.76471 6.28012C7.37435 6.28012 7.05882 6.5359 7.05882 6.85105V9.70567C7.05882 10.0208 7.37435 10.2766 7.76471 10.2766C8.15506 10.2766 8.47059 10.0208 8.47059 9.70567V6.85105C8.47059 6.5359 8.15506 6.28012 7.76471 6.28012Z" fill="#B0B0B0"/>
<path d="M11.2941 3.99642C10.9038 3.99642 10.5882 4.2522 10.5882 4.56735V9.70567C10.5882 10.0208 10.9038 10.2766 11.2941 10.2766C11.6845 10.2766 12 10.0208 12 9.70567V4.56735C12 4.2522 11.6845 3.99642 11.2941 3.99642Z" fill="#B0B0B0"/>
<path d="M0.705176 4.56735C0.907765 4.56735 1.10824 4.49712 1.24871 4.36182L4.23529 1.46266L7.22188 4.36182C7.49082 4.62216 8.03788 4.62216 8.30682 4.36182L11.8362 0.936265C12.0861 0.694193 12.0452 0.333939 11.7459 0.132403C11.4452 -0.0697047 11.0012 -0.0365912 10.7513 0.205481L7.76471 3.10464L4.77812 0.205481C4.50918 -0.0548608 3.96212 -0.0548608 3.69318 0.205481L0.163765 3.63103C-0.0861176 3.8731 -0.0451766 4.23336 0.254118 4.43489C0.386118 4.52396 0.545647 4.56735 0.705176 4.56735Z" fill="#B0B0B0"/>
</svg>
