<svg width="15" height="14" viewBox="0 0 15 14" fill="none" xmlns="http://www.w3.org/2000/svg">
<path d="M9.37953 12.73L9.37953 2.01C9.37953 1.8323 9.30891 1.66194 9.18322 1.53629C9.07327 1.42632 8.92902 1.35847 8.77559 1.34327L8.70953 1.34L6.02953 1.34C5.85183 1.34 5.68147 1.41064 5.55582 1.53629C5.43017 1.66194 5.35953 1.8323 5.35953 2.01L5.35953 12.73C5.35953 13.1 5.05956 13.4 4.68953 13.4C4.3195 13.4 4.01953 13.1 4.01953 12.73L4.01953 2.01C4.01953 1.47691 4.23145 0.965818 4.6084 0.58887C4.98535 0.211921 5.49645 0 6.02953 0L8.70953 0L8.90845 0.00981549C9.36848 0.0555497 9.80089 0.259096 10.1307 0.58887C10.5076 0.965818 10.7195 1.47691 10.7195 2.01L10.7195 12.73C10.7195 13.1 10.4196 13.4 10.0495 13.4C9.67949 13.4 9.37953 13.1 9.37953 12.73Z" fill="#B0B0B0"/>
<path d="M13.4 4.68993C13.4 4.3199 13.1 4.01993 12.73 4.01993L2.01 4.01993C1.63997 4.01993 1.34 4.3199 1.34 4.68993L1.34 11.3899C1.34 11.76 1.63997 12.0599 2.01 12.0599L12.73 12.0599C13.1 12.0599 13.4 11.76 13.4 11.3899L13.4 4.68993ZM14.74 11.3899C14.74 12.5001 13.8401 13.3999 12.73 13.3999L2.01 13.3999C0.899911 13.3999 0 12.5001 0 11.3899L0 4.68993C0 3.57984 0.899911 2.67993 2.01 2.67993L12.73 2.67993C13.8401 2.67993 14.74 3.57984 14.74 4.68993L14.74 11.3899Z" fill="#B0B0B0"/>
</svg>
