<svg xmlns="http://www.w3.org/2000/svg" width="22" height="26" fill="none"><path fill="#0F6EEF" stroke="#fff" stroke-width=".2" d="M18.537 14.91a.9.9 0 0 1 .588 1.13c-1.477 4.68-6.486 7.286-11.167 5.81-2.116-.669-3.865-2.111-4.968-3.975l-.113-.192-.766 2.426a.9.9 0 0 1-1.717-.542L1.9 14.798a.873.873 0 0 1 .538-.553l.11-.034h.002c.027-.008.05-.021.06-.027l.015-.007.034-.001v.002h.054l.004-.001a.886.886 0 0 1 .535.102l.01.005 4.536 1.431a.9.9 0 1 1-.542 1.718l-2.99-.944.117.216A7.114 7.114 0 0 0 8.5 20.132a7.108 7.108 0 0 0 8.907-4.634.9.9 0 0 1 1.13-.588ZM2.98 10.643a.9.9 0 0 1-.563-1.142c1.578-4.646 6.643-7.143 11.29-5.565 2.101.714 3.818 2.194 4.88 4.082l.11.194.818-2.408a.9.9 0 1 1 1.705.579l-1.608 4.734a.873.873 0 0 1-.55.541l-.11.032h-.003c-.028.007-.05.02-.062.026l-.014.006-.034.001v-.002H18.781a.886.886 0 0 1-.532-.114l-.01-.005-4.504-1.53a.9.9 0 1 1 .58-1.705l2.967 1.008-.111-.218a7.114 7.114 0 0 0-4.043-3.516c-3.706-1.259-7.747.732-9.006 4.439a.9.9 0 0 1-1.142.563Z"/><path stroke="#0F6EEF" stroke-linecap="round" stroke-linejoin="round" stroke-width="1.2" d="M11 9v7.333m1.667-6h-2.5a1.167 1.167 0 1 0 0 2.334h1.666a1.167 1.167 0 1 1 0 2.333H9"/></svg>