<svg width="22" height="22" viewBox="0 0 22 22" fill="none" xmlns="http://www.w3.org/2000/svg">
<path fill-rule="evenodd" clip-rule="evenodd" d="M16.2836 14.6526C15.4764 15.8492 14.2686 16.7843 12.7824 17.2307C9.35859 18.259 5.75327 16.3042 4.7297 12.8648C3.70612 9.42545 5.65185 5.80367 9.07571 4.77544C10.87 4.23664 12.7139 4.5173 14.2102 5.40129L16.4575 1.49124C14.8395 0.543466 12.9581 0 10.95 0C4.90247 0 0 4.9249 0 11C0 17.0751 4.90247 22 10.95 22C14.7097 22 18.0269 20.0966 19.9985 17.1968L16.2836 14.6526ZM16.0203 7.2025C15.7333 6.76277 15.3665 6.3987 15.0089 6.08928L18.0108 2.47134C18.2286 2.49194 19.4578 3.78936 19.7441 4.29486L16.0203 7.2025ZM17.0685 12.7354L21.5773 14.0312C21.4755 14.3575 21.0655 15.6252 20.9561 15.6832L16.6691 13.7496C16.7801 13.5393 16.8712 13.4195 17.0685 12.7354ZM17.2498 10.3184C17.3256 10.8173 17.2243 11.5741 17.2408 11.8418L21.9251 12.3134C21.9473 12.1494 22.0778 10.6492 21.9318 9.82159L17.2498 10.3184ZM16.5499 7.98385L20.6859 5.75047C20.9504 6.19974 21.4905 7.56815 21.6471 8.06693L17.067 9.40019C16.907 8.91418 16.757 8.35733 16.5499 7.98385Z" fill="#6F7787"/>
</svg>
