<svg xmlns="http://www.w3.org/2000/svg" width="21" height="21" fill="none"><path stroke="#6F7787" stroke-linecap="square" stroke-miterlimit="10" stroke-width="1.5" d="M10.033 12.79a2.58 2.58 0 1 0 0-5.16 2.58 2.58 0 0 0 0 5.16Z"/><path stroke="#6F7787" stroke-linecap="round" stroke-miterlimit="10" stroke-width="1.5" d="M16.913 10.21a6.925 6.925 0 0 0-.162-1.473l2.334-1.767-1.72-2.98-2.703 1.14a6.868 6.868 0 0 0-2.546-1.478L11.753.75h-3.44L7.95 3.652a6.869 6.869 0 0 0-2.547 1.479L2.7 3.99.98 6.97l2.335 1.767a6.794 6.794 0 0 0 0 2.946L.98 13.451 2.7 16.43l2.703-1.14a6.87 6.87 0 0 0 2.547 1.477l.363 2.903h3.44l.363-2.903a6.869 6.869 0 0 0 2.546-1.478l2.703 1.14 1.72-2.978-2.334-1.768c.107-.484.16-.978.162-1.473Z"/></svg>