<svg width="184" height="194" viewBox="0 0 184 194" fill="none" xmlns="http://www.w3.org/2000/svg">
<path opacity="0.2" fill-rule="evenodd" clip-rule="evenodd" d="M136.504 56.0864C154.411 56.0001 172.498 61.8713 187.583 74.0371C222.336 102.065 228.006 152.888 200.251 187.552C172.495 222.215 121.823 227.596 87.0708 199.567C68.8593 184.879 58.6385 163.931 57.0254 142.328L1.27941 146.627C3.10605 169.929 10.9174 193.107 25.1599 213.776C68.0529 276.023 152.963 291.935 214.812 249.316C276.66 206.698 292.027 121.688 249.134 59.4406C222.469 20.7429 179.563 -0.0483069 136.057 0.000153372L136.504 56.0864ZM62.5242 111.06C60.0834 117.099 58.9784 123.429 58.3649 129.281L0.240542 123.763C-1.09462 121.377 3.39562 99.6225 6.5114 93.1295L62.5242 111.06ZM111.419 61.4573L92.6323 5.95763C96.6754 4.7164 112.49 0.0439062 113.856 0.762444L124.577 58.4532C121.648 58.7858 119.783 58.6888 111.419 61.4573ZM85.5266 76.5466C90.0676 72.267 98.4911 68.0001 101.1 65.9527L72.676 14.4283C70.8494 15.3498 54.6507 24.5313 47.2608 31.8406L85.5266 76.5466ZM66.7227 100.128L14.6508 73.2245C17.3488 67.3504 27.4488 52.1905 31.4161 47.0799L77.4749 84.8701C73.6614 89.9256 69.0562 95.3762 66.7227 100.128Z" fill="white"/>
</svg>
